# xmcd
#
# Track frame offsets:
#	150
#	10166
#	21881
#	29219
#	38037
#	51076
#	61306
#	73651
#	83712
#	94621
#	103669
#	113293
#	123219
#	135942
#	145749
#	157417
#	166548
#	174663
#	185980
#	197573
#	207815
#	217470
#	230020
#
# Disc length: 3210 seconds
#
# Revision: 1
# Processed by: cddbd v1.5.2PL0 Copyright (c) Steve Scherf et al.
# Submitted via: audiograbber 1.83.01
#
DISCID=440c8817
DTITLE=Various Artist - Stompin' 28: More Rhythm 'n' Blues Killers
DYEAR=1900
DGENRE=Blues
TTITLE0=Joe Boots - Squeeze Me
TTITLE1=June Bateman - Possum Belly Overalls
TTITLE2=June Bug Bailey - Louisiana Twist
TTITLE3=Koko Joe - I'm Georgia Bound
TTITLE4=TV Slim - I Can't Be Satisfied
TTITLE5=Arthur Griswold - Pretty Mama Blues
TTITLE6=Little Luther - The Twirl
TTITLE7=Ray Johnson - Shake A Little Bit
TTITLE8=Piano Slim - Squeezing
TTITLE9=June Bug Bailey - Lee Street Blues
TTITLE10=Good Rockin' Sammy T - Good Rockin' Mama
TTITLE11=Chuck Rives - Say I Love You
TTITLE12=Flash Terry - She's My Baby
TTITLE13=Walter Rhodes - Uncle Sam
TTITLE14=Chuck Higgins - Betwix And Between
TTITLE15=Carolyn Montgomery - Stop That Stuff
TTITLE16=Morris Jones - Her Spare
TTITLE17=Teddy McRae - Hi Fi Baby
TTITLE18=Guitar Shorty - Ways Of A Man
TTITLE19=Louis Armstrong - Talking About You
TTITLE20=Skinny Dynamo - Baby Baby Mine
TTITLE21=Baby Calloway - Midnight Blues
TTITLE22=Johnny Rodgers - I'm A Lucky Man
EXTD=
EXTT0=
EXTT1=
EXTT2=
EXTT3=
EXTT4=
EXTT5=
EXTT6=
EXTT7=
EXTT8=
EXTT9=
EXTT10=
EXTT11=
EXTT12=
EXTT13=
EXTT14=
EXTT15=
EXTT16=
EXTT17=
EXTT18=
EXTT19=
EXTT20=
EXTT21=
EXTT22=
PLAYORDER=
